<?xml version="1.0" encoding="UTF-8"?><svg id="uuid-312f0391-3f3a-40dd-b074-c0e270153329" xmlns="http://www.w3.org/2000/svg" width="331.65" height="33.28" viewBox="0 0 331.65 33.28"><defs><style>.uuid-38f948a3-a1ee-44a8-a783-f83d07aec163{fill:#43e8fa;}.uuid-38f948a3-a1ee-44a8-a783-f83d07aec163,.uuid-5e16abc7-c492-40e9-aaa2-0d1b27fa6f2a{stroke-width:0px;}.uuid-5e16abc7-c492-40e9-aaa2-0d1b27fa6f2a{fill:#fff;}</style></defs><g id="uuid-b6d5193b-e6f0-4c97-9a0d-334a356f6f6a"><path class="uuid-38f948a3-a1ee-44a8-a783-f83d07aec163" d="M4.02,23.8c-.62-2.4-.92-4.79-.92-7.15,0-4.79,1.2-9.54,3.6-14.26.13-.22.2-.49.2-.82,0-.44-.15-.81-.44-1.12-.29-.31-.66-.46-1.11-.46-.7,0-1.2.35-1.52,1.05C2.56,3.63,1.6,6.21.96,8.8c-.64,2.59-.96,5.2-.96,7.82s.32,5.2.96,7.8c.64,2.6,1.6,5.21,2.88,7.84.2.37.42.63.66.79.24.15.52.23.86.23.47,0,.85-.15,1.14-.44s.44-.66.44-1.1c0-.26-.07-.52-.2-.79-1.19-2.36-2.09-4.74-2.71-7.15Z"/><path class="uuid-5e16abc7-c492-40e9-aaa2-0d1b27fa6f2a" d="M24.08,8.3c-1.11-.5-2.34-.75-3.68-.75-1.75,0-3.3.39-4.66,1.16-1.36.78-2.42,1.85-3.2,3.23-.77,1.38-1.16,2.95-1.16,4.72s.4,3.27,1.19,4.64c.8,1.37,1.89,2.45,3.28,3.25,1.39.8,2.98,1.2,4.78,1.2,2.42,0,4.44-.73,6.06-2.2.29-.26.42-.57.39-.93-.03-.36-.23-.68-.59-.97-.27-.22-.58-.32-.92-.3-.35.02-.69.16-1.03.43-.52.44-1.09.75-1.73.95s-1.36.29-2.17.29c-1.23,0-2.32-.28-3.25-.84-.93-.56-1.66-1.31-2.19-2.26-.53-.95-.79-2.04-.79-3.26s.25-2.38.76-3.34c.51-.96,1.21-1.71,2.1-2.25.9-.53,1.94-.8,3.13-.8,1.75,0,3.21.62,4.37,1.87.29.28.61.46.96.52.35.07.67,0,.96-.2.38-.26.61-.57.69-.92.08-.35-.03-.68-.32-.98-.88-1.01-1.87-1.76-2.98-2.26Z"/><path class="uuid-5e16abc7-c492-40e9-aaa2-0d1b27fa6f2a" d="M47.28,8.7c-1.39-.78-2.98-1.16-4.78-1.16s-3.39.39-4.79,1.16c-1.4.78-2.5,1.85-3.3,3.21-.8,1.37-1.2,2.95-1.2,4.74s.4,3.34,1.2,4.7c.8,1.37,1.89,2.44,3.3,3.21,1.4.78,3,1.16,4.79,1.16s3.42-.39,4.81-1.16c1.39-.78,2.48-1.85,3.28-3.21s1.2-2.93,1.2-4.7-.4-3.37-1.21-4.74c-.81-1.37-1.91-2.44-3.3-3.21ZM47.95,19.95c-.54.95-1.28,1.7-2.22,2.25-.94.55-2.02.82-3.23.82s-2.29-.27-3.23-.82c-.94-.55-1.68-1.29-2.22-2.25-.54-.95-.81-2.05-.81-3.29s.27-2.35.81-3.31c.54-.96,1.28-1.72,2.22-2.26.94-.55,2.02-.82,3.23-.82s2.29.27,3.23.82c.94.55,1.68,1.3,2.22,2.26.54.96.81,2.07.81,3.31s-.27,2.34-.81,3.29Z"/><path class="uuid-5e16abc7-c492-40e9-aaa2-0d1b27fa6f2a" d="M71.78,8.48c-1.23-.64-2.63-.97-4.17-.97s-2.82.31-4,.93c-.71.37-1.32.83-1.85,1.37v-.6c0-.46-.15-.83-.44-1.11-.29-.28-.67-.43-1.14-.43s-.85.14-1.14.43c-.29.28-.44.66-.44,1.11v14.88c0,.44.15.8.44,1.1.29.29.67.44,1.14.44s.85-.15,1.14-.44c.29-.3.44-.66.44-1.1v-9.41c0-.83.24-1.57.71-2.23s1.1-1.18,1.9-1.57,1.7-.59,2.71-.59,2,.2,2.84.61c.84.4,1.5,1.02,1.99,1.84.48.82.72,1.86.72,3.13v8.23c0,.44.15.8.45,1.1.3.29.68.44,1.13.44s.82-.15,1.13-.44c.3-.3.45-.66.45-1.1v-8.23c0-1.79-.36-3.31-1.08-4.56s-1.69-2.19-2.93-2.84Z"/><path class="uuid-5e16abc7-c492-40e9-aaa2-0d1b27fa6f2a" d="M91.09,22.59h-1.08c-.83,0-1.52-.32-2.07-.95s-.82-1.43-.82-2.39v-8.3h3.16c.43,0,.77-.13,1.04-.38s.4-.55.4-.9c0-.41-.13-.74-.4-.98s-.62-.36-1.04-.36h-3.16V3.48c0-.44-.15-.8-.44-1.08-.29-.28-.67-.43-1.14-.43s-.82.14-1.11.43c-.29.28-.44.65-.44,1.08v4.85h-1.75c-.43,0-.77.12-1.04.36-.27.24-.4.57-.4.98,0,.35.13.65.4.9.27.25.62.38,1.04.38h1.75v8.3c0,1.22.26,2.31.79,3.26.53.95,1.24,1.7,2.15,2.26.91.56,1.94.84,3.08.84h.64c.52,0,.94-.14,1.28-.43.34-.28.5-.64.5-1.08s-.13-.8-.39-1.08c-.26-.28-.58-.43-.96-.43Z"/><path class="uuid-5e16abc7-c492-40e9-aaa2-0d1b27fa6f2a" d="M110.86,8.67c-1.27-.75-2.77-1.13-4.49-1.13s-3.3.39-4.66,1.16c-1.36.78-2.42,1.85-3.18,3.21-.76,1.37-1.14,2.95-1.14,4.74s.4,3.34,1.21,4.7c.81,1.37,1.93,2.44,3.36,3.21,1.44.78,3.07,1.16,4.91,1.16,1.03,0,2.12-.19,3.26-.57,1.14-.38,2.09-.87,2.83-1.46.36-.26.53-.57.51-.93-.02-.36-.21-.69-.57-1-.27-.22-.58-.32-.94-.31-.36.01-.7.13-1.01.34-.47.35-1.08.66-1.83.92-.75.26-1.5.39-2.24.39-1.3,0-2.45-.28-3.45-.84s-1.78-1.32-2.35-2.3c-.41-.69-.66-1.45-.78-2.28h13.04c.43,0,.77-.13,1.04-.38.27-.25.4-.57.4-.97,0-1.73-.34-3.25-1.01-4.57-.67-1.32-1.64-2.36-2.91-3.11ZM100.33,15.25c.12-.69.31-1.34.6-1.93.48-.98,1.19-1.75,2.12-2.31.93-.56,2.04-.84,3.31-.84,1.17,0,2.17.26,2.99.79.83.52,1.47,1.24,1.92,2.15.32.65.52,1.37.61,2.15h-11.56Z"/><path class="uuid-5e16abc7-c492-40e9-aaa2-0d1b27fa6f2a" d="M128.2,16.73l5.26-6.57c.29-.35.44-.72.45-1.1.01-.38-.1-.71-.34-.98-.24-.27-.58-.41-1.03-.41-.25,0-.47.04-.66.11-.19.08-.38.22-.55.44l-5.08,6.48-5.49-6.54c-.29-.33-.68-.49-1.18-.49-.45,0-.79.13-1.03.39-.24.26-.35.58-.34.95.01.37.15.72.42,1.05l5.54,6.55-5.41,6.6c-.29.35-.44.71-.44,1.08s.12.68.37.93c.25.25.58.38,1.01.38.45,0,.82-.16,1.11-.49l5.28-6.49,5.42,6.43c.18.22.36.37.55.44.19.08.4.11.62.11.38,0,.71-.11.98-.34s.41-.52.44-.89c.02-.36-.12-.73-.44-1.1l-5.49-6.54Z"/><path class="uuid-5e16abc7-c492-40e9-aaa2-0d1b27fa6f2a" d="M148.09,22.59h-1.08c-.83,0-1.52-.32-2.07-.95s-.82-1.43-.82-2.39v-8.3h3.16c.43,0,.78-.13,1.04-.38.27-.25.4-.55.4-.9,0-.41-.13-.74-.4-.98-.27-.24-.62-.36-1.04-.36h-3.16V3.48c0-.44-.15-.8-.44-1.08-.29-.28-.67-.43-1.14-.43s-.82.14-1.11.43c-.29.28-.44.65-.44,1.08v4.85h-1.75c-.43,0-.77.12-1.04.36s-.4.57-.4.98c0,.35.13.65.4.9s.62.38,1.04.38h1.75v8.3c0,1.22.26,2.31.79,3.26.53.95,1.25,1.7,2.15,2.26.91.56,1.93.84,3.08.84h.64c.52,0,.94-.14,1.28-.43.34-.28.51-.64.51-1.08s-.13-.8-.39-1.08c-.26-.28-.58-.43-.96-.43Z"/><path class="uuid-38f948a3-a1ee-44a8-a783-f83d07aec163" d="M156.07,1.05c-.31-.7-.81-1.05-1.48-1.05-.45,0-.82.15-1.13.46-.3.31-.45.68-.45,1.12.02.33.1.6.24.82,2.4,4.72,3.6,9.48,3.6,14.26,0,2.36-.31,4.74-.94,7.15-.63,2.4-1.53,4.79-2.69,7.15-.13.26-.2.52-.2.79,0,.44.15.8.45,1.1s.68.44,1.13.44c.34,0,.62-.08.86-.23.23-.15.44-.42.62-.79,1.28-2.62,2.24-5.23,2.89-7.84.65-2.6.98-5.2.98-7.8s-.32-5.23-.96-7.82-1.61-5.17-2.91-7.75Z"/><path class="uuid-38f948a3-a1ee-44a8-a783-f83d07aec163" d="M233.3,12.92v-7.64c0-1.46.75-2.2,2.25-2.2.45,0,.82-.14,1.11-.43.29-.28.44-.65.44-1.08,0-.46-.15-.84-.44-1.13-.29-.3-.66-.44-1.11-.44-3.61,0-5.42,1.76-5.42,5.28v7.64c0,1.46-.74,2.2-2.22,2.2-.45,0-.82.14-1.13.43-.3.28-.45.66-.45,1.12s.15.8.45,1.08.68.43,1.13.43c1.48,0,2.22.73,2.22,2.2v7.64c0,3.52,1.81,5.28,5.42,5.28.45,0,.82-.15,1.11-.44.29-.29.44-.66.44-1.1s-.15-.83-.44-1.11c-.29-.28-.66-.43-1.11-.43-1.5,0-2.25-.73-2.25-2.2v-7.64c0-1.55-.39-2.79-1.18-3.7.38-.46.67-1,.88-1.62.2-.62.3-1.33.3-2.11Z"/><path class="uuid-5e16abc7-c492-40e9-aaa2-0d1b27fa6f2a" d="M254.22,8.05c-.63-.38-1.56-.57-2.79-.57-1.32,0-2.54.31-3.65.92-.79.44-1.47.99-2.04,1.66v-.87c0-.5-.13-.88-.39-1.13-.26-.25-.65-.38-1.16-.38s-.88.13-1.14.39c-.27.26-.4.63-.4,1.11v14.92c0,.5.13.88.4,1.13s.65.38,1.14.38.9-.13,1.16-.39c.26-.26.39-.63.39-1.11v-9.64c0-1.03.31-1.88.94-2.56.63-.68,1.49-1.16,2.57-1.44,1.09-.28,2.33-.32,3.72-.1.31.07.61.09.88.07s.5-.11.69-.26c.19-.15.33-.38.42-.69.13-.57-.11-1.04-.74-1.43Z"/><path class="uuid-5e16abc7-c492-40e9-aaa2-0d1b27fa6f2a" d="M272.16,8.7c-1.39-.78-2.98-1.16-4.78-1.16s-3.39.39-4.79,1.16c-1.4.78-2.5,1.85-3.3,3.21-.8,1.37-1.2,2.95-1.2,4.74s.4,3.34,1.2,4.7c.8,1.37,1.89,2.44,3.3,3.21,1.4.78,3,1.16,4.79,1.16s3.42-.39,4.81-1.16c1.39-.78,2.48-1.85,3.28-3.21.8-1.37,1.2-2.93,1.2-4.7s-.4-3.37-1.21-4.74c-.81-1.37-1.91-2.44-3.3-3.21ZM272.83,19.95c-.54.95-1.28,1.7-2.22,2.25-.94.55-2.02.82-3.23.82s-2.29-.27-3.23-.82c-.94-.55-1.68-1.29-2.22-2.25-.54-.95-.81-2.05-.81-3.29s.27-2.35.81-3.31c.54-.96,1.28-1.72,2.22-2.26s2.02-.82,3.23-.82,2.29.27,3.23.82c.94.55,1.68,1.3,2.22,2.26.54.96.81,2.07.81,3.31s-.27,2.34-.81,3.29Z"/><path class="uuid-5e16abc7-c492-40e9-aaa2-0d1b27fa6f2a" d="M296.59,8.7c-1.39-.78-2.98-1.16-4.78-1.16s-3.39.39-4.8,1.16c-1.4.78-2.5,1.85-3.3,3.21-.8,1.37-1.19,2.95-1.19,4.74s.4,3.34,1.19,4.7,1.9,2.44,3.3,3.21,3,1.16,4.8,1.16,3.42-.39,4.81-1.16c1.39-.78,2.48-1.85,3.28-3.21s1.2-2.93,1.2-4.7-.4-3.37-1.21-4.74c-.81-1.37-1.91-2.44-3.3-3.21ZM297.26,19.95c-.54.95-1.28,1.7-2.22,2.25-.94.55-2.02.82-3.23.82s-2.29-.27-3.23-.82c-.94-.55-1.68-1.29-2.22-2.25-.54-.95-.81-2.05-.81-3.29s.27-2.35.81-3.31c.54-.96,1.28-1.72,2.22-2.26.94-.55,2.02-.82,3.23-.82s2.29.27,3.23.82c.94.55,1.68,1.3,2.22,2.26.54.96.81,2.07.81,3.31s-.27,2.34-.81,3.29Z"/><path class="uuid-5e16abc7-c492-40e9-aaa2-0d1b27fa6f2a" d="M315.84,22.59h-1.08c-.83,0-1.52-.32-2.07-.95-.55-.63-.82-1.43-.82-2.39v-8.3h3.16c.43,0,.77-.13,1.04-.38.27-.25.4-.55.4-.9,0-.41-.13-.74-.4-.98-.27-.24-.62-.36-1.04-.36h-3.16V3.48c0-.44-.15-.8-.44-1.08-.29-.28-.67-.43-1.14-.43s-.82.14-1.11.43c-.29.28-.44.65-.44,1.08v4.85h-1.75c-.43,0-.77.12-1.04.36s-.4.57-.4.98c0,.35.13.65.4.9s.62.38,1.04.38h1.75v8.3c0,1.22.26,2.31.79,3.26.53.95,1.24,1.7,2.15,2.26.91.56,1.93.84,3.08.84h.64c.52,0,.94-.14,1.28-.43.34-.28.5-.64.5-1.08s-.13-.8-.39-1.08c-.26-.28-.58-.43-.96-.43Z"/><path class="uuid-38f948a3-a1ee-44a8-a783-f83d07aec163" d="M331.2,15.54c-.3-.28-.68-.43-1.13-.43-1.48,0-2.22-.73-2.22-2.2v-7.64c0-3.52-1.81-5.28-5.42-5.28-.45,0-.82.15-1.11.44-.29.29-.44.67-.44,1.13s.15.8.44,1.08c.29.28.66.43,1.11.43,1.5,0,2.25.73,2.25,2.2v7.64c0,.79.09,1.49.29,2.11.19.62.48,1.16.86,1.62-.76.92-1.14,2.15-1.14,3.7v7.64c0,1.46-.75,2.2-2.25,2.2-.45,0-.82.14-1.11.43-.29.28-.44.66-.44,1.11s.15.8.44,1.1c.29.29.66.44,1.11.44,3.61,0,5.42-1.76,5.42-5.28v-7.64c0-1.46.74-2.2,2.22-2.2.45,0,.82-.14,1.13-.43s.45-.65.45-1.08c0-.46-.15-.83-.45-1.12Z"/><path class="uuid-38f948a3-a1ee-44a8-a783-f83d07aec163" d="M208.32,15.49l-10.52-6.16c-.45-.22-.89-.22-1.33-.01-.44.21-.66.56-.66,1.05s.21.89.64,1.14l1.32.76h-17.37c-.39,0-.71.12-.96.37-.25.25-.38.55-.38.91s.13.67.38.91c.25.25.57.37.96.37h21.8l3.04,1.76-3.21,1.87h-21.63c-.39,0-.71.12-.96.35-.25.24-.38.55-.38.93s.13.67.38.91c.25.25.57.37.96.37l17.26-.02-1.21.7c-.43.27-.64.65-.64,1.12,0,.33.11.6.32.83.21.23.48.37.78.44.31.06.6,0,.88-.18l10.52-6.13c.47-.27.7-.65.7-1.14,0-.44-.23-.82-.7-1.14Z"/></g></svg>